<svg xmlns="http://www.w3.org/2000/svg" style="display: none;">
  <defs>
    <!-- Shield Icon -->
    <symbol id="ms-shield" viewBox="0 0 24 24">
      <path d="M12,1L3,5V11C3,16.55 6.84,21.74 12,23C17.16,21.74 21,16.55 21,11V5L12,1M12,7C13.4,7 14.8,8.6 14.8,10V11.5C15.4,11.5 16,12.1 16,12.7V16.2C16,16.8 15.4,17.3 14.8,17.3H9.2C8.6,17.3 8,16.8 8,16.2V12.7C8,12.1 8.6,11.5 9.2,11.5V10C9.2,8.6 10.6,7 12,7M12,8.2C11.2,8.2 10.5,8.7 10.5,10V11.5H13.5V10C13.5,8.7 12.8,8.2 12,8.2Z"/>
    </symbol>

    <!-- Block Icon -->
    <symbol id="ms-block" viewBox="0 0 24 24">
      <path d="M12,2A10,10 0 0,0 2,12A10,10 0 0,0 12,22A10,10 0 0,0 22,12A10,10 0 0,0 12,2M12,4A8,8 0 0,1 20,12C20,14.4 19,16.5 17.3,18L6,6.7C7.5,5 9.6,4 12,4M12,20A8,8 0 0,1 4,12C4,9.6 5,7.5 6.7,6L18,17.3C16.5,19 14.4,20 12,20Z"/>
    </symbol>

    <!-- Bot Icon -->
    <symbol id="ms-bot" viewBox="0 0 24 24">
      <path d="M12,2A2,2 0 0,1 14,4C14,4.74 13.6,5.39 13,5.73V7H14A7,7 0 0,1 21,14H22A1,1 0 0,1 23,15V18A1,1 0 0,1 22,19H21V20A2,2 0 0,1 19,22H5A2,2 0 0,1 3,20V19H2A1,1 0 0,1 1,18V15A1,1 0 0,1 2,14H3A7,7 0 0,1 10,7H11V5.73C10.4,5.39 10,4.74 10,4A2,2 0 0,1 12,2M7.5,13A2.5,2.5 0 0,0 5,15.5A2.5,2.5 0 0,0 7.5,18A2.5,2.5 0 0,0 10,15.5A2.5,2.5 0 0,0 7.5,13M16.5,13A2.5,2.5 0 0,0 14,15.5A2.5,2.5 0 0,0 16.5,18A2.5,2.5 0 0,0 19,15.5A2.5,2.5 0 0,0 16.5,13Z"/>
    </symbol>

    <!-- Firewall Icon -->
    <symbol id="ms-firewall" viewBox="0 0 24 24">
      <path d="M11,1.07C7.05,1.56 4,4.92 4,9H11M4,15A8,8 0 0,0 12,23A8,8 0 0,0 20,15M13,1.07V9H20C20,4.92 16.95,1.56 13,1.07Z"/>
    </symbol>

    <!-- Warning Icon -->
    <symbol id="ms-warning" viewBox="0 0 24 24">
      <path d="M13,14H11V10H13M13,18H11V16H13M1,21H23L12,2L1,21Z"/>
    </symbol>

    <!-- Success Icon -->
    <symbol id="ms-success" viewBox="0 0 24 24">
      <path d="M12,2A10,10 0 0,1 22,12A10,10 0 0,1 12,22A10,10 0 0,1 2,12A10,10 0 0,1 12,2M11,16.5L18,9.5L16.59,8.09L11,13.67L7.41,10.09L6,11.5L11,16.5Z"/>
    </symbol>

    <!-- Eye Icon -->
    <symbol id="ms-eye" viewBox="0 0 24 24">
      <path d="M12,9A3,3 0 0,0 9,12A3,3 0 0,0 12,15A3,3 0 0,0 15,12A3,3 0 0,0 12,9M12,17A5,5 0 0,1 7,12A5,5 0 0,1 12,7A5,5 0 0,1 17,12A5,5 0 0,1 12,17M12,4.5C7,4.5 2.73,7.61 1,12C2.73,16.39 7,19.5 12,19.5C17,19.5 21.27,16.39 23,12C21.27,7.61 17,4.5 12,4.5Z"/>
    </symbol>

    <!-- Settings Icon -->
    <symbol id="ms-settings" viewBox="0 0 24 24">
      <path d="M12,15.5A3.5,3.5 0 0,1 8.5,12A3.5,3.5 0 0,1 12,8.5A3.5,3.5 0 0,1 15.5,12A3.5,3.5 0 0,1 12,15.5M19.43,12.97C19.47,12.65 19.5,12.33 19.5,12C19.5,11.67 19.47,11.34 19.43,11L21.54,9.37C21.73,9.22 21.78,8.95 21.66,8.73L19.66,5.27C19.54,5.05 19.27,4.96 19.05,5.05L16.56,6.05C16.04,5.66 15.5,5.32 14.87,5.07L14.5,2.42C14.46,2.18 14.25,2 14,2H10C9.75,2 9.54,2.18 9.5,2.42L9.13,5.07C8.5,5.32 7.96,5.66 7.44,6.05L4.95,5.05C4.73,4.96 4.46,5.05 4.34,5.27L2.34,8.73C2.22,8.95 2.27,9.22 2.46,9.37L4.57,11C4.53,11.34 4.5,11.67 4.5,12C4.5,12.33 4.53,12.65 4.57,12.97L2.46,14.63C2.27,14.78 2.22,15.05 2.34,15.27L4.34,18.73C4.46,18.95 4.73,19.03 4.95,18.95L7.44,17.94C7.96,18.34 8.5,18.68 9.13,18.93L9.5,21.58C9.54,21.82 9.75,22 10,22H14C14.25,22 14.46,21.82 14.5,21.58L14.87,18.93C15.5,18.68 16.04,18.34 16.56,17.94L19.05,18.95C19.27,19.03 19.54,18.95 19.66,18.73L21.66,15.27C21.78,15.05 21.73,14.78 21.54,14.63L19.43,12.97Z"/>
    </symbol>

    <!-- Lock Icon -->
    <symbol id="ms-lock" viewBox="0 0 24 24">
      <path d="M12,17A2,2 0 0,0 14,15C14,13.89 13.1,13 12,13A2,2 0 0,0 10,15A2,2 0 0,0 12,17M18,8A2,2 0 0,1 20,10V20A2,2 0 0,1 18,22H6A2,2 0 0,1 4,20V10C4,8.89 4.9,8 6,8H7V6A5,5 0 0,1 12,1A5,5 0 0,1 17,6V8H18M12,3A3,3 0 0,0 9,6V8H15V6A3,3 0 0,0 12,3Z"/>
    </symbol>

    <!-- Chart Icon -->
    <symbol id="ms-chart" viewBox="0 0 24 24">
      <path d="M22,21H2V3H4V19H6V17H10V19H12V16H16V19H18V17H22V21Z"/>
    </symbol>

    <!-- Globe Icon -->
    <symbol id="ms-globe" viewBox="0 0 24 24">
      <path d="M17.9,17.39C17.64,16.59 16.89,16 16,16H15V13A1,1 0 0,0 14,12H8V10H10A1,1 0 0,0 11,9V7H13A2,2 0 0,0 15,5V4.59C17.93,5.77 20,8.64 20,12C20,14.08 19.2,15.97 17.9,17.39M11,19.93C7.05,19.44 4,16.08 4,12C4,11.38 4.08,10.78 4.21,10.21L9,15V16A2,2 0 0,0 11,18M12,2A10,10 0 0,0 2,12A10,10 0 0,0 12,22A10,10 0 0,0 22,12A10,10 0 0,0 12,2Z"/>
    </symbol>
  </defs>
</svg>
